<?xml version="1.0" encoding="UTF-8"?>
<svg width="62px" height="170px" viewBox="0 0 62 170" version="1.1" xmlns="http://www.w3.org/2000/svg" xmlns:xlink="http://www.w3.org/1999/xlink">
    <!-- Generator: Sketch 53.2 (72643) - https://sketchapp.com -->
    <title>tree</title>
    <desc>Created with Sketch.</desc>
    <defs>
        <path d="M32.0992765,0 C48.1863106,0 58.2746627,33.9446543 62.3643327,101.833963 L62.3643046,101.833965 C63.3710175,118.545591 50.6396693,132.909144 33.9280426,133.915856 C33.3211253,133.952417 32.7132453,133.97071 32.1052278,133.97071 L32.1052278,133.97071 C15.3618244,133.97071 1.7886141,120.3975 1.7886141,103.654096 C1.7886141,103.046918 1.80685488,102.439876 1.84331176,101.833793 C5.92692315,33.944597 16.012256,4.35488266e-15 32.0992765,0 Z" id="path-1"></path>
    </defs>
    <g id="Splash-Page" stroke="none" stroke-width="1" fill="none" fill-rule="evenodd">
        <g id="tree" transform="translate(-1.000000, 0.000000)">
            <g id="Group-20">
                <mask id="mask-2" fill="white">
                    <use xlink:href="#path-1"></use>
                </mask>
                <use id="Rectangle-62" fill="#99E87D" xlink:href="#path-1"></use>
                <path d="M-3.70722656,46.1735372 C-0.745898438,56.8161985 3.65625,62.1375291 9.49921875,62.1375291 C18.2636719,62.1375291 21.4611328,43.3124169 31.6863281,43.3124169 C41.9115234,43.3124169 41.4298828,65.5973654 51.3509766,65.5973654 C61.2720703,65.5973654 62.4251953,41.01469 69.3826172,41.01469 C74.0208984,41.01469 64.1730469,24.3836921 39.8390625,-8.87830369 L-7.45664063,13.581491 L-3.70722656,46.1735372 Z" id="Path-6" fill="#FFFFFF" mask="url(#mask-2)"></path>
            </g>
            <path d="M32.5894737,45.377176 L32.5894737,45.377176 C33.5835862,45.377176 34.3894737,46.1830635 34.3894737,47.177176 L34.3894737,170 L30.7894737,170 L30.7894737,47.177176 C30.7894737,46.1830635 31.5953611,45.377176 32.5894737,45.377176 Z" id="Rectangle-63" fill="#7CD05E"></path>
            <path d="M39.5677471,63.1018075 L39.5677471,63.1018075 C40.4605481,63.1039132 41.1837826,63.8271476 41.1858882,64.7199486 L41.2296053,83.2559863 C41.2316982,84.1433625 40.5140342,84.8644197 39.6266579,84.8665126 C39.6241316,84.8665186 39.6216053,84.8665186 39.619079,84.8665126 L39.619079,84.8665126 C38.726278,84.8644069 38.0030436,84.1411725 38.0009379,83.2483715 L37.9572208,64.7123338 C37.955128,63.8249576 38.6727919,63.1039004 39.5601682,63.1018075 C39.5626945,63.1018016 39.5652208,63.1018016 39.5677471,63.1018075 Z" id="Rectangle-64" fill="#7CD05E" transform="translate(39.593413, 73.984160) rotate(45.000000) translate(-39.593413, -73.984160) "></path>
            <path d="M25.6098524,89.811489 L25.6098524,89.811489 C26.5026534,89.8135947 27.2258878,90.5368291 27.2279935,91.4296301 L27.2717106,109.965668 C27.2738034,110.853044 26.5561395,111.574101 25.6687632,111.576194 C25.6662369,111.5762 25.6637106,111.5762 25.6611843,111.576194 L25.6611843,111.576194 C24.7683833,111.574088 24.0451488,110.850854 24.0430432,109.958053 L23.9993261,91.4220153 C23.9972332,90.5346391 24.7148972,89.8135819 25.6022735,89.811489 C25.6047998,89.8114831 25.6073261,89.8114831 25.6098524,89.811489 Z" id="Rectangle-64" fill="#7CD05E" transform="translate(25.635518, 100.693842) scale(-1, 1) rotate(45.000000) translate(-25.635518, -100.693842) "></path>
        </g>
    </g>
</svg>